<svg width="148" height="36" viewBox="0 0 148 36" fill="none" xmlns="http://www.w3.org/2000/svg">
<path d="M19.8223 28.9004C19.8546 25.5961 19.0169 22.9091 17.9513 22.8987C16.8856 22.8883 15.9956 25.5585 15.9633 28.8627C15.931 32.167 16.7687 34.8541 17.8343 34.8645C18.9 34.8749 19.79 32.2047 19.8223 28.9004Z" fill="white"/>
<path d="M13.6419 28.15C15.4557 25.3878 16.2038 22.6744 15.313 22.0895C14.4222 21.5045 12.2297 23.2695 10.416 26.0318C8.60228 28.794 7.85413 31.5073 8.74491 32.0923C9.63577 32.6772 11.8282 30.9122 13.6419 28.15Z" fill="white"/>
<path d="M8.84111 24.187C11.8604 22.844 13.9568 20.966 13.5236 19.9922C13.0906 19.0185 10.2919 19.3179 7.27267 20.6609C4.25345 22.0039 2.157 23.8819 2.59012 24.8556C3.02323 25.8294 5.8219 25.53 8.84111 24.187Z" fill="white"/>
<path d="M13.1612 17.2616C13.3233 16.2083 10.8071 14.947 7.54121 14.4443C4.2752 13.9416 1.49619 14.388 1.33407 15.4413C1.17196 16.4945 3.68813 17.7558 6.95411 18.2585C10.22 18.7613 12.9991 18.3149 13.1612 17.2616Z" fill="white"/>
<path d="M14.3337 14.7524C15.0394 13.954 13.6043 11.5327 11.1283 9.34438C8.6523 7.1561 6.07298 6.02947 5.36725 6.828C4.66152 7.62653 6.09663 10.0478 8.57266 12.2361C11.0487 14.4244 13.628 15.551 14.3337 14.7524Z" fill="white"/>
<path d="M16.669 13.286C17.6945 12.9959 17.7963 10.183 16.8966 7.00347C15.9969 3.82388 14.4363 1.48155 13.4108 1.77172C12.3854 2.06189 12.2835 4.87467 13.1832 8.05428C14.0829 11.2338 15.6436 13.5762 16.669 13.286Z" fill="white"/>
<path d="M23.0103 8.15322C23.9726 4.99199 23.9262 2.17774 22.9067 1.86741C21.8872 1.55708 20.2806 3.86817 19.3183 7.0294C18.3561 10.1906 18.4025 13.0049 19.422 13.3152C20.4415 13.6255 22.0481 11.3145 23.0103 8.15322Z" fill="white"/>
<path d="M27.5411 12.4247C30.0594 10.2852 31.5416 7.89243 30.8516 7.08029C30.1616 6.26813 27.5607 7.34415 25.0425 9.48356C22.5241 11.623 21.042 14.0158 21.732 14.828C22.422 15.6401 25.0228 14.5642 27.5411 12.4247Z" fill="white"/>
<path d="M29.0393 18.4694C32.3146 18.0312 34.8551 16.8197 34.7137 15.7634C34.5725 14.7071 31.8028 14.2061 28.5275 14.6442C25.2523 15.0824 22.7117 16.2939 22.853 17.3502C22.9944 18.4064 25.764 18.9076 29.0393 18.4694Z" fill="white"/>
<path d="M33.2642 25.1575C33.7165 24.1926 31.6575 22.2736 28.6653 20.8713C25.6732 19.469 22.881 19.1146 22.4287 20.0795C21.9765 21.0445 24.0355 22.9635 27.0277 24.3658C30.0198 25.768 32.812 26.1225 33.2642 25.1575Z" fill="white"/>
<path d="M26.9704 32.2775C27.8725 31.7103 27.178 28.9827 25.4191 26.1852C23.6602 23.3878 21.503 21.58 20.6008 22.1472C19.6987 22.7144 20.3932 25.4421 22.1521 28.2395C23.9109 31.0369 26.0682 32.8448 26.9704 32.2775Z" fill="white"/>
<path d="M60.08 9.152V26H55.976V19.064H49.592V26H45.488V9.152H49.592V15.752H55.976V9.152H60.08ZM67.1467 9.152V26H63.0427V9.152H67.1467ZM89.2008 9.152V26H85.0968V15.896L81.3288 26H78.0168L74.2248 15.872V26H70.1208V9.152H74.9688L79.6968 20.816L84.3768 9.152H89.2008ZM102.64 23.024H96.3521L95.3441 26H91.0481L97.1441 9.152H101.896L107.992 26H103.648L102.64 23.024ZM101.584 19.856L99.4961 13.688L97.4321 19.856H101.584ZM115.943 26.168C114.711 26.168 113.607 25.968 112.631 25.568C111.655 25.168 110.871 24.576 110.279 23.792C109.703 23.008 109.399 22.064 109.367 20.96H113.735C113.799 21.584 114.015 22.064 114.383 22.4C114.751 22.72 115.231 22.88 115.823 22.88C116.431 22.88 116.911 22.744 117.263 22.472C117.615 22.184 117.791 21.792 117.791 21.296C117.791 20.88 117.647 20.536 117.359 20.264C117.087 19.992 116.743 19.768 116.327 19.592C115.927 19.416 115.351 19.216 114.599 18.992C113.511 18.656 112.623 18.32 111.935 17.984C111.247 17.648 110.655 17.152 110.159 16.496C109.663 15.84 109.415 14.984 109.415 13.928C109.415 12.36 109.983 11.136 111.119 10.256C112.255 9.36 113.735 8.912 115.559 8.912C117.415 8.912 118.911 9.36 120.047 10.256C121.183 11.136 121.791 12.368 121.871 13.952H117.431C117.399 13.408 117.199 12.984 116.831 12.68C116.463 12.36 115.991 12.2 115.415 12.2C114.919 12.2 114.519 12.336 114.215 12.608C113.911 12.864 113.759 13.24 113.759 13.736C113.759 14.28 114.015 14.704 114.527 15.008C115.039 15.312 115.839 15.64 116.927 15.992C118.015 16.36 118.895 16.712 119.567 17.048C120.255 17.384 120.847 17.872 121.343 18.512C121.839 19.152 122.087 19.976 122.087 20.984C122.087 21.944 121.839 22.816 121.343 23.6C120.863 24.384 120.159 25.008 119.231 25.472C118.303 25.936 117.207 26.168 115.943 26.168ZM128.717 9.152V26H124.613V9.152H128.717ZM142.179 23.024H135.891L134.883 26H130.587L136.683 9.152H141.435L147.531 26H143.187L142.179 23.024ZM141.123 19.856L139.035 13.688L136.971 19.856H141.123Z" fill="white"/>
</svg>
